<svg xmlns="http://www.w3.org/2000/svg" viewBox="0 0 216 216"><defs><style>.cls-1,.cls-2{fill:#0a84ff;}.cls-1{stroke:#b364b5;}.cls-1,.cls-6{stroke-miterlimit:10;}.cls-3{fill:none;}.cls-4{fill:#55b2ff;}.cls-5{fill:#0068c6;}.cls-6,.cls-8{fill:#9b9b9b;}.cls-6{stroke:#9b9b9b;stroke-width:0.75px;}.cls-7{fill:#d7d7db;}.cls-9{fill:#545b80;}.cls-10{fill:#b1b1b3;}.cls-11{fill:#f9f9fa;}.cls-12{fill:#a5a5a5;}.cls-13{fill:#7f7f7f;}.cls-14{fill:#71c6ff;}.cls-15{fill:#ffe900;}.cls-16{fill:#fcae00;}.cls-17{fill:#6ecbdc;}</style></defs><title>Artboard 1</title><g id="Layer_2" data-name="Layer 2"><rect class="cls-1" x="16.37" y="16.68" width="183.89" height="183.89" rx="36" ry="36" transform="translate(-45.09 108.4) rotate(-45)"/><rect class="cls-2" x="-16" y="-17.81" width="255" height="249.69"/></g><g id="Layer_1" data-name="Layer 1"><path class="cls-3" d="M122.7,120.86l.25-.37-.47.2Z"/><path class="cls-4" d="M48.95,108a12.22,12.22,0,0,0-6.07,1.8,11,11,0,0,1-6.07,1.65,11,11,0,0,1-6.07-1.65A12.29,12.29,0,0,0,24,108a12.29,12.29,0,0,0-6.72,1.81,11,11,0,0,1-6.07,1.65.68.68,0,1,0,0,1.37A12.29,12.29,0,0,0,18,111,11,11,0,0,1,24,109.4,11,11,0,0,1,30.09,111a12.29,12.29,0,0,0,6.72,1.81A12.29,12.29,0,0,0,43.53,111a11,11,0,0,1,6.07-1.65h.26c0-.09,0-.18,0-.26A10.73,10.73,0,0,1,48.95,108Z"/><path class="cls-4" d="M41.27,106.83a.34.34,0,0,0,.14,0l.63-.3a.34.34,0,1,0-.31-.61l-.6.29a.34.34,0,0,0,.14.65Z"/><path class="cls-4" d="M23.62,104.33A11.28,11.28,0,0,1,29.85,106c.43.23.87.47,1.33.69a.34.34,0,0,0,.14,0,.34.34,0,0,0,.14-.65c-.45-.21-.87-.44-1.29-.67a12,12,0,0,0-6.55-1.77.34.34,0,0,0,0,.68Z"/><path class="cls-4" d="M36.62,107.11a.34.34,0,0,0,0,.68h0a13.89,13.89,0,0,0,2.09-.17.34.34,0,1,0-.11-.67A13.2,13.2,0,0,1,36.62,107.11Z"/><path class="cls-4" d="M49.49,113.32a.34.34,0,1,0,0,.68c.47,0,.89,0,1.3.06a2.7,2.7,0,0,1-.47-.71C50,113.34,49.78,113.32,49.49,113.32Z"/><path class="cls-4" d="M153.18,122.71a12.29,12.29,0,0,0-6.72,1.81,11,11,0,0,1-6.07,1.65.68.68,0,1,0,0,1.37,12.29,12.29,0,0,0,6.72-1.81,11,11,0,0,1,6-1.65c.09-.47.2-.92.32-1.36Z"/><path class="cls-4" d="M204.32,122.71a12.29,12.29,0,0,0-6.72,1.81,12,12,0,0,1-12.14,0,12.29,12.29,0,0,0-6.72-1.81,11.82,11.82,0,0,0-5.49,1.18c.11.47.21.93.3,1.38a10.49,10.49,0,0,1,5.19-1.19,11,11,0,0,1,6.07,1.65,13.35,13.35,0,0,0,13.43,0,11,11,0,0,1,6.07-1.65.68.68,0,1,0,0-1.37Z"/><path class="cls-4" d="M176.71,118.41a.34.34,0,0,0,0,.68h0a14.69,14.69,0,0,1,1.56-.08.34.34,0,1,0,0-.68A15.38,15.38,0,0,0,176.71,118.41Z"/><path class="cls-4" d="M152.77,118.32a.34.34,0,1,0,0,.68,14,14,0,0,1,1.89.12l.29-.65A14.45,14.45,0,0,0,152.77,118.32Z"/><path class="cls-4" d="M186.49,130.44c-.45-.21-.87-.44-1.3-.67a12,12,0,0,0-6.55-1.77.34.34,0,1,0,0,.68,11.28,11.28,0,0,1,6.23,1.69c.43.23.87.47,1.33.69a.34.34,0,0,0,.14,0,.34.34,0,0,0,.14-.65Z"/><path class="cls-4" d="M204.2,128a15.26,15.26,0,0,0-1.62.08.34.34,0,0,0,0,.68h0a13.16,13.16,0,0,1,1.56-.08.34.34,0,1,0,0-.68Z"/><path class="cls-4" d="M196.76,130.25l-.6.29a.34.34,0,0,0,.28.62l.63-.3a.34.34,0,1,0-.31-.61Z"/><path class="cls-4" d="M193.63,131.29a13.2,13.2,0,0,1-2,.16.34.34,0,0,0,0,.68h0a13.89,13.89,0,0,0,2.09-.17.34.34,0,0,0-.11-.67Z"/><path class="cls-5" d="M65.81,134.13c-3.4-4-4.25-9.56-3.19-15.94-8,2.72-14.74,8.17-14.74,12.55,0,8.2,17.73,14.85,39.59,14.85,1.28,0,4.71.27,6,.23a10.64,10.64,0,0,0-4.25-2.12C78.56,142.63,72.19,141.56,65.81,134.13Z"/><path class="cls-4" d="M120.13,159.33a12.29,12.29,0,0,0-6.72,1.81,12,12,0,0,1-12.14,0,13.35,13.35,0,0,0-13.43,0,12,12,0,0,1-12.14,0,13.35,13.35,0,0,0-13.43,0,11,11,0,0,1-6.07,1.65.68.68,0,1,0,0,1.37,12.29,12.29,0,0,0,6.72-1.81,12,12,0,0,1,12.13,0,13.36,13.36,0,0,0,13.43,0,12,12,0,0,1,12.14,0,13.35,13.35,0,0,0,13.43,0,11,11,0,0,1,6.07-1.65.68.68,0,1,0,0-1.37Z"/><path class="cls-4" d="M92.59,155.71a14.69,14.69,0,0,1,1.56-.08.34.34,0,0,0,0-.68,15.38,15.38,0,0,0-1.63.08.34.34,0,0,0,0,.68Z"/><path class="cls-4" d="M86.23,158.13a.34.34,0,0,0,.14,0l.63-.3a.34.34,0,1,0-.31-.61l-.6.29a.34.34,0,0,0,.14.65Z"/><path class="cls-4" d="M81.59,159.09a13.89,13.89,0,0,0,2.09-.17.34.34,0,1,0-.11-.67,13.2,13.2,0,0,1-2,.16.34.34,0,0,0,0,.68Z"/><path class="cls-4" d="M74.81,157.32c.43.23.87.47,1.33.69a.34.34,0,0,0,.14,0,.34.34,0,0,0,.14-.65c-.45-.21-.87-.44-1.29-.67a12,12,0,0,0-6.55-1.77.34.34,0,0,0,0,.68A11.28,11.28,0,0,1,74.81,157.32Z"/><path class="cls-4" d="M109.44,167.92a13.2,13.2,0,0,1-2,.16.34.34,0,0,0,0,.68h0a13.89,13.89,0,0,0,2.09-.17.34.34,0,0,0-.11-.67Z"/><path class="cls-4" d="M102.3,167.06c-.45-.21-.87-.44-1.3-.67a12,12,0,0,0-6.55-1.77.34.34,0,1,0,0,.68,11.28,11.28,0,0,1,6.23,1.69c.43.23.87.47,1.33.69a.34.34,0,0,0,.14,0,.34.34,0,0,0,.14-.65Z"/><path class="cls-4" d="M112.57,166.87l-.6.29a.34.34,0,0,0,.28.62l.63-.3a.34.34,0,1,0-.31-.61Z"/><path class="cls-4" d="M120,164.62a15.26,15.26,0,0,0-1.62.08.34.34,0,0,0,0,.68h0a13.16,13.16,0,0,1,1.56-.08.34.34,0,1,0,0-.68Z"/><path class="cls-2" d="M122.44,121.3c.08-.15.18-.29.27-.44l-.22-.16.47-.2a6.93,6.93,0,0,1,1.56-1.56l-.44-1.46c-1.68,1.37-4.57,2.13-6.67,2.52a27.17,27.17,0,0,1,4.47,2.76A7,7,0,0,1,122.44,121.3Z"/><path class="cls-6" d="M95.23,128.54a.66.66,0,0,0,.57-.17,6.53,6.53,0,0,0,4.38,2.85,2.12,2.12,0,0,0,2-.74c2.22-3-.69-5.93-.74-6-5.35-4.53-13-3.48-18.36-1a20.49,20.49,0,0,0-4.12,2.5c-2.24,1.78-3.57,3.8-3.57,5.64a.34.34,0,0,0,.69,0c0-2.47,2.93-5.5,7.29-7.52,7.89-3.66,14.28-1.94,17.6.88.1.1,2.52,2.57.66,5.06a1.49,1.49,0,0,1-1.37.47A6,6,0,0,1,96,127.37a.34.34,0,0,0-.46-.15h0l-.07,0a7.66,7.66,0,0,0-7.22,2,10.27,10.27,0,0,0-2.53,8.47.69.69,0,0,0,.67.55h.14a.69.69,0,0,0,.54-.81,8,8,0,0,1,0-2.7,8.4,8.4,0,0,1,2.13-4.53A6.33,6.33,0,0,1,95.23,128.54Z"/><path class="cls-7" d="M121.91,126.6a6.93,6.93,0,0,1-.29-2.24,21.87,21.87,0,0,0-7-4,.67.67,0,0,1-.28-.15,21.71,21.71,0,0,0-6-1.19.34.34,0,0,1,0-.68,22.2,22.2,0,0,1,5.86,1.1.68.68,0,0,1,.56-.41c1.92-.18,7.07-1,8.85-2.88l-1.66-5c-2.66,1.3-7.06,1.53-11.14.53-4.41-1.09-7.8-3.45-9.55-6.66a.68.68,0,0,1,.6-1c.89,0,1.22-.24,1.25-.3s-.22-.47-1.22-1a.68.68,0,0,1-.17-1.1c5.37-5.21.94-13.61.9-13.69a.68.68,0,0,1-.06-.14l-.05-.18a.68.68,0,0,1,.2-.69,6.41,6.41,0,0,0,2-5.75,3.26,3.26,0,0,0-2.16-2.58c-3.56-1.21-6.24,3.18-6.26,3.22a.66.66,0,0,1-.11.12,16.08,16.08,0,0,1,2.15,1.68.34.34,0,0,1-.48.48,22.29,22.29,0,0,0-4.32-3,22.62,22.62,0,0,0-10.82-2.42h-.85a.68.68,0,0,1-.5-.23A5.82,5.82,0,0,0,77.21,76a6.86,6.86,0,0,0,.87,3.22.68.68,0,0,1-1.19.67h0c-1.58-2.82-5.85-2.06-7.33-1.7a1.21,1.21,0,0,0,.21.39,3.1,3.1,0,0,0,2.15.86A.68.68,0,0,1,72,80.81,27.54,27.54,0,0,0,56.8,89a.34.34,0,0,1-.11.27,8.11,8.11,0,0,0-.77.81h0a14.36,14.36,0,0,0-2.61,5.48.34.34,0,0,1-.33.27H52.9a.34.34,0,0,1-.26-.4,15.16,15.16,0,0,1,2.29-5.18c-.77-.35-5.08-2.12-7.22.56a3.26,3.26,0,0,0-.43,3.33,6.41,6.41,0,0,0,4.79,3.76.68.68,0,0,1,.57.67c0,5.89,3,8.54,3.64,8.82a.68.68,0,0,1,.39.57,4.47,4.47,0,0,1-.11,1.07,6.39,6.39,0,0,0-.06,2.47c.87-.18,2.42-.58,3.4-.85a.68.68,0,0,1,.6,1.19c-.14.12-1.32,1.21,0,3.3,1.65,0,3-1.87,3-1.89a.68.68,0,0,1,.4-.28l.23-.06a.68.68,0,0,1,.8.9c-2.66,7.1-2,14,2,19.38,4.59,6.27,12.82,9.58,22.58,9.05h0a.69.69,0,0,1,.39.12c10.55,7.26,32.57,12.6,46.89,4a61.72,61.72,0,0,0-8.45-15.16.33.33,0,0,1-.16.06.36.36,0,0,1,0,0,.35.35,0,0,1-.21.17h-.14A7,7,0,0,1,121.91,126.6Zm8.53,14.25c.78,2.62-2.71,5.83-10.92,5.46-15-.68-21.38-4.71-23.89-6.14a49.44,49.44,0,0,1-8.18-5.54,7.91,7.91,0,0,0,0,2.68.68.68,0,0,1-.54.8h-.13a.68.68,0,0,1-.67-.55,10.18,10.18,0,0,1,2.5-8.39,7.59,7.59,0,0,1,7.16-2l.07,0h0a.34.34,0,0,1,.46.15,5.92,5.92,0,0,0,4.2,3.14,1.48,1.48,0,0,0,1.36-.47c1.85-2.47-.55-4.91-.65-5-3.3-2.79-9.63-4.49-17.45-.87-4.32,2-7.23,5-7.23,7.45a.34.34,0,1,1-.68,0c0-1.82,1.31-3.82,3.54-5.59-3.28-4.48-5.9-8.45-4.9-10.45,0,0,5.12,1,12.63-2a14.63,14.63,0,0,0,7.06-6.72,29.69,29.69,0,0,1-11.46,4.87c-11.94,2.41-23-2.25-24.6-10.4s6.7-16.71,18.65-19.12,23,2.25,24.6,10.4c.94,4.65-1.38,9.44-5.77,13.14.86,2.9,3.52,11.07,6.87,13.3,4.1,2.73,6.14,2,12.29,4.1S128.39,134,130.44,140.84Z"/><path class="cls-8" d="M127.65,128.19l-.71-2.33a.7.7,0,0,1,.47-.87h0l3.05-.93a1,1,0,0,1,.47.59l1.54,5.1a.35.35,0,0,0,.44.23s.08-.06.12-.07a1.5,1.5,0,0,0,.75-.35.33.33,0,0,0,.2-.1,7.32,7.32,0,0,0,1-1.42,7.3,7.3,0,0,0-5.88-10.72l-.11-.36h.07a.68.68,0,0,0,.34-.09c3.1-1.77,3.53-5.84,2-8.53a4.16,4.16,0,0,0-2.2-2,3.82,3.82,0,0,0-3.2.42m0,0a.65.65,0,0,0-.09.08l-.37-1.21a7.35,7.35,0,0,0,2-2.34,7.29,7.29,0,0,0-4.62-10.51.33.33,0,0,0-.15,0c-.22,0-.3,0-.59,0a3.73,3.73,0,0,0-.44.15.35.35,0,0,0-.23.44l1.54,5.1a1,1,0,0,1-.06.75l-3.07.93a.7.7,0,0,1-.87-.47l-1.51-5a.32.32,0,0,0-.48-.19.34.34,0,0,0-.44,0,7,7,0,0,0,4.24,12.27l.25.82.6,2c-2,1.18-6.15,1.78-10.65.67a13.63,13.63,0,0,1-8.13-5.11,1.72,1.72,0,0,0,1.43-1.21c.1-.44.06-1.23-1.15-2.06a11,11,0,0,0,2.28-9.32,19,19,0,0,0-1.58-5,7.71,7.71,0,0,0,2.08-6.7,4.59,4.59,0,0,0-3.06-3.59c-3.76-1.28-6.54,1.92-7.51,3.26a24.48,24.48,0,0,0-12.77-3.25h-.54a6.89,6.89,0,0,0-5.59-2.67.68.68,0,0,0-.68.68A12.14,12.14,0,0,0,76,77.2c-3-1.52-7.11-.22-7.33-.15a.68.68,0,0,0-.46.53,2.46,2.46,0,0,0,.5,1.82,2.91,2.91,0,0,0,.67.63c-8.62,2.37-13,7.23-14.2,8.77-1.53-.63-6-2.07-8.5,1.1A4.59,4.59,0,0,0,46,94.58a7.7,7.7,0,0,0,5.28,4.5c.17,5.51,2.77,8.37,4,9.25,0,.12,0,.27-.07.42a7.45,7.45,0,0,0,.12,3.68.69.69,0,0,0,.71.49,24,24,0,0,0,2.6-.56,4.51,4.51,0,0,0,.88,3.8.68.68,0,0,0,.47.29,4.1,4.1,0,0,0,2.82-.74C61,122.38,62,128.8,65.77,134c4.83,6.6,13.39,10.08,23.52,9.62,5.92,4,14.4,7,22.76,8.13a53.14,53.14,0,0,0,6.85.46c6,0,13-1.12,19.07-4.95a.68.68,0,0,0,.27-.83,61.3,61.3,0,0,0-10.59-18.21m9.11,18.18c-14.32,8.56-36.34,3.22-46.89-4a.69.69,0,0,0-.39-.12h0c-9.76.52-18-2.79-22.58-9.05-4-5.39-4.66-12.28-2-19.38a.68.68,0,0,0-.8-.9l-.23.06a.68.68,0,0,0-.4.28s-1.33,1.88-3,1.89c-1.28-2.1-.1-3.18,0-3.3a.68.68,0,0,0-.6-1.19c-1,.27-2.53.66-3.4.85a6.39,6.39,0,0,1,.06-2.47,4.47,4.47,0,0,0,.11-1.07.68.68,0,0,0-.39-.57c-.6-.28-3.64-2.94-3.64-8.82a.68.68,0,0,0-.57-.67,6.41,6.41,0,0,1-4.79-3.76,3.26,3.26,0,0,1,.43-3.33c2.15-2.68,6.45-.91,7.22-.56a15.16,15.16,0,0,0-2.29,5.18.34.34,0,0,0,.26.4H53a.34.34,0,0,0,.33-.27A14.36,14.36,0,0,1,55.92,90h0a8.11,8.11,0,0,1,.77-.81A.34.34,0,0,0,56.8,89,27.54,27.54,0,0,1,72,80.81a.68.68,0,0,0-.07-1.35,3.1,3.1,0,0,1-2.15-.86,1.21,1.21,0,0,1-.21-.39c1.48-.36,5.74-1.12,7.33,1.7h0a.68.68,0,0,0,1.19-.67A6.86,6.86,0,0,1,77.21,76a5.82,5.82,0,0,1,4.07,2.4.68.68,0,0,0,.5.23h.85a22.62,22.62,0,0,1,10.82,2.42,22.29,22.29,0,0,1,4.32,3,.34.34,0,0,0,.48-.48,16.08,16.08,0,0,0-2.15-1.68.66.66,0,0,0,.11-.12s2.7-4.43,6.26-3.22a3.26,3.26,0,0,1,2.16,2.58,6.41,6.41,0,0,1-2,5.75.68.68,0,0,0-.2.69l.05.18a.68.68,0,0,0,.06.14c0,.08,4.47,8.48-.9,13.69a.68.68,0,0,0,.17,1.1c1,.5,1.21.91,1.22,1s-.36.3-1.25.3a.68.68,0,0,0-.6,1c1.75,3.21,5.14,5.58,9.55,6.66,4.08,1,8.48.77,11.14-.53l1.66,5c-1.78,1.86-6.93,2.71-8.85,2.88a.68.68,0,0,0-.56.41,22.2,22.2,0,0,0-5.86-1.1.34.34,0,0,0,0,.68,21.71,21.71,0,0,1,6,1.19.67.67,0,0,0,.28.15,21.87,21.87,0,0,1,7,4,6.94,6.94,0,0,0,6.17,7.13h.14a.35.35,0,0,0,.21-.17.36.36,0,0,0,0,0,.33.33,0,0,0,.16-.06m0,0a61.72,61.72,0,0,1,8.45,15.16m-12.7-28.9.44,1.46a6.93,6.93,0,0,0-1.56,1.56l-.25.37c-.09.14-.19.29-.27.44a7,7,0,0,0-.57,1.45,27.17,27.17,0,0,0-4.47-2.76C119.5,119.59,122.38,118.83,124.06,117.47Zm10.83,5.2a6.57,6.57,0,0,1-.5,5,6.34,6.34,0,0,1-.52.81l-1.32-4.36a1.38,1.38,0,0,0-1.72-.92l-3.63,1.1a1.38,1.38,0,0,0-.92,1.72l1.32,4.36a6.61,6.61,0,0,1-3.59-9.34,6.66,6.66,0,0,1,2-2.25.34.34,0,0,0,.13-.38l-.93-3.06a8.81,8.81,0,0,0,2.93,1l.41,1.33a.34.34,0,0,0,.31.24A6.61,6.61,0,0,1,134.9,122.67ZM127,107.83a2.31,2.31,0,0,1,1.73-.15,2.82,2.82,0,0,1,1.47,1.34,5.24,5.24,0,0,1-.65,6,.67.67,0,0,0-.37,0,6.19,6.19,0,0,1-4-1.23,2.68,2.68,0,0,1-1.29-2C124,109.77,126.5,108.14,127,107.83Zm-5.74-7.68.21-.06-.21.06ZM116,101.43a6.57,6.57,0,0,1,.5-5,6.38,6.38,0,0,1,.52-.81l1.32,4.36a1.38,1.38,0,0,0,1.72.92l3.63-1.1a1.38,1.38,0,0,0,.92-1.72l-1.32-4.36a6.61,6.61,0,0,1,3.59,9.34,6.64,6.64,0,0,1-2,2.25.34.34,0,0,0-.13.38l.52,1.68a8.53,8.53,0,0,0-2,2.06l-.92-3a.34.34,0,0,0-.32-.24A6.6,6.6,0,0,1,116,101.43Z"/><path class="cls-9" d="M90.33,102.64a.68.68,0,0,0-.83.5,3,3,0,0,1-1.29,1.8,2.12,2.12,0,0,1-1.84-.2.68.68,0,0,0-.94.36,2.21,2.21,0,0,1-1.27,1.39,3.62,3.62,0,0,1-2.54-.37.68.68,0,0,0-.67,1.19,5.6,5.6,0,0,0,2.49.66,3.53,3.53,0,0,0,1.17-.19,3.31,3.31,0,0,0,1.79-1.55,3.11,3.11,0,0,0,2.39-.06,4.34,4.34,0,0,0,2-2.71A.68.68,0,0,0,90.33,102.64Z"/><path class="cls-9" d="M68.88,99.55a1,1,0,0,0,1.92-.72s-.41-1.09-1-2.69a1,1,0,0,0-1.92.7C68.47,98.46,68.88,99.55,68.88,99.55Z"/><path class="cls-9" d="M91.27,93.45a1,1,0,0,0,1,.72,1,1,0,0,0,.3,0,1,1,0,0,0,.67-1.28l-.72-2.3a1,1,0,0,0-2,.61Z"/><path class="cls-10" d="M72.81,99.33a.68.68,0,0,0-.78.57,2,2,0,0,1-.88,1.55,3.24,3.24,0,0,1-2.44-.08.68.68,0,0,0-.54,1.25,5.61,5.61,0,0,0,2,.41,3.33,3.33,0,0,0,1.62-.38,3.28,3.28,0,0,0,1.58-2.54A.68.68,0,0,0,72.81,99.33Z"/><path class="cls-10" d="M95.51,93.42a.69.69,0,0,0-.83.48,2,2,0,0,1-1,1.45A3.23,3.23,0,0,1,91.22,95a.68.68,0,0,0-.66,1.19,5.45,5.45,0,0,0,2.38.63,3.15,3.15,0,0,0,1.23-.24A3.28,3.28,0,0,0,96,94.26.68.68,0,0,0,95.51,93.42Z"/><path class="cls-11" d="M114.74,123.1c-6.14-2-8.19-1.37-12.29-4.1-3.35-2.23-6-10.4-6.87-13.3,4.38-3.7,6.7-8.48,5.77-13.14-1.64-8.15-12.66-12.81-24.6-10.4s-20.29,11-18.65,19.12,12.66,12.81,24.6,10.4a29.69,29.69,0,0,0,11.46-4.87,14.63,14.63,0,0,1-7.06,6.72c-7.51,3.07-12.63,2-12.63,2-1,2,1.62,6,4.9,10.45a20.31,20.31,0,0,1,4.09-2.48c5.32-2.47,12.89-3.5,18.19,1,.05,0,2.94,3,.74,5.93a2.11,2.11,0,0,1-2,.74,6.47,6.47,0,0,1-4.34-2.83.66.66,0,0,1-.57.17,6.28,6.28,0,0,0-5.94,1.59,8.33,8.33,0,0,0-2.11,4.49,49.44,49.44,0,0,0,8.18,5.54c2.51,1.44,8.87,5.46,23.89,6.14,8.21.37,11.71-2.85,10.92-5.46C128.39,134,120.89,125.14,114.74,123.1ZM68.49,95.53a1,1,0,0,1,1.31.61c.59,1.61,1,2.69,1,2.69a1,1,0,0,1-1.92.72s-.41-1.09-1-2.71A1,1,0,0,1,68.49,95.53Zm3.32,7.11a3.33,3.33,0,0,1-1.62.38,5.61,5.61,0,0,1-2-.41.68.68,0,0,1,.54-1.25,3.24,3.24,0,0,0,2.44.08A2,2,0,0,0,72,99.9a.68.68,0,0,1,1.35.21A3.28,3.28,0,0,1,71.8,102.64ZM91.23,89.87a1,1,0,0,1,1.28.67l.72,2.3a1,1,0,0,1-.67,1.28,1,1,0,0,1-.3,0,1,1,0,0,1-1-.72l-.72-2.3A1,1,0,0,1,91.23,89.87Zm-11.69,12a1.39,1.39,0,0,1,.17-1.53c2.28-2.75,7.52-4,9.27-3.59a1.35,1.35,0,0,1,1.08.91,2.66,2.66,0,0,1-.25,2,11.44,11.44,0,0,1-3.23,3.49,4.65,4.65,0,0,1-1.37.76h-.72C83,103.8,80.09,103,79.54,101.9Zm11.3,1.57a4.34,4.34,0,0,1-2,2.71,3.11,3.11,0,0,1-2.39.06,3.31,3.31,0,0,1-1.79,1.55,3.53,3.53,0,0,1-1.17.19,5.6,5.6,0,0,1-2.49-.66.68.68,0,0,1,.67-1.19,3.62,3.62,0,0,0,2.54.37,2.21,2.21,0,0,0,1.27-1.39.68.68,0,0,1,.94-.36,2.12,2.12,0,0,0,1.84.2,3,3,0,0,0,1.29-1.8.68.68,0,0,1,1.33.32Zm3.34-6.84a3.15,3.15,0,0,1-1.23.24,5.45,5.45,0,0,1-2.38-.63A.68.68,0,0,1,91.22,95a3.23,3.23,0,0,0,2.42.33,2,2,0,0,0,1-1.45.68.68,0,0,1,1.32.35A3.28,3.28,0,0,1,94.17,96.62Z"/><path class="cls-12" d="M164.38,108.05a47.11,47.11,0,0,0-4.66,7.16c-1.5,3,3.34,8.82,5.33,10.82a.68.68,0,0,1-1,1c-.23-.23-4.19-4.23-5.55-8.12a23.33,23.33,0,0,0-2.17,6.39,6,6,0,0,0,.7,3.35l4.64,6.37a.68.68,0,0,1-1,.88,27.49,27.49,0,0,1-4.78-6.56l-.15-.2a17.34,17.34,0,0,0-.51,2c-.07.32-.15.68-.24,1.06-.19.82.08,1.27.72,2.2a10.77,10.77,0,0,1,2,5.05c.69,4.86-9.76,8.1-12.35,8.83a1.15,1.15,0,0,0,.51.54c2.89,1.91,13.37,1.89,17.5-2.24,5.05-5.05,7.31-10.17,7.31-16.58,0-5.62-4.84-18.13-6.34-21.87"/><path class="cls-13" d="M144.6,147a.68.68,0,0,0-.46.41,2,2,0,0,0,1,2.47c1.36.9,4.11,1.46,7.19,1.46,4.29,0,9.24-1.09,12-3.87,5.33-5.33,7.71-10.74,7.71-17.55s-6.6-22.8-6.88-23.47a.68.68,0,0,0-.53-.41.69.69,0,0,0-.63.24,50.29,50.29,0,0,0-5.55,8.32,4.39,4.39,0,0,0-.39,2.43.68.68,0,0,0-.27.25A24.61,24.61,0,0,0,155,125a5.74,5.74,0,0,0,.17,2.39c-.69.71-.91,1.71-1.28,3.35l-.24,1a3.78,3.78,0,0,0,.92,3.29,9.44,9.44,0,0,1,1.8,4.48c.49,3.41-8.57,6.59-11.78,7.43m.79,1.2c2.58-.72,13-4,12.35-8.83a10.77,10.77,0,0,0-2-5.05c-.64-.93-.91-1.38-.72-2.2.09-.38.17-.74.24-1.06a17.34,17.34,0,0,1,.51-2l.15.2a27.49,27.49,0,0,0,4.78,6.56.68.68,0,0,0,1-.88l-4.64-6.37a6,6,0,0,1-.7-3.35,23.33,23.33,0,0,1,2.17-6.39c1.36,3.89,5.32,7.89,5.55,8.12a.68.68,0,0,0,1-1c-2-2-6.83-7.82-5.33-10.82a47.11,47.11,0,0,1,4.66-7.16c1.5,3.74,6.34,16.25,6.34,21.87,0,6.41-2.25,11.53-7.31,16.58-4.14,4.14-14.61,4.15-17.5,2.24a1.15,1.15,0,0,1-.51-.54"/><path class="cls-14" d="M131.65,58.62a.4.4,0,0,0,.27-.1,9.07,9.07,0,0,1,5-2,12.47,12.47,0,0,1,3.82,0,.4.4,0,1,0,.14-.79,13.21,13.21,0,0,0-4.07-.05,9.84,9.84,0,0,0-5.38,2.22.4.4,0,0,0,.27.7Z"/><path class="cls-14" d="M147.91,60.82a.4.4,0,0,0,.61-.53,15.87,15.87,0,0,0-1.76-1.73.4.4,0,0,0-.52.62A15,15,0,0,1,147.91,60.82Z"/><path class="cls-14" d="M113.37,70.2H123a.4.4,0,1,0,0-.8h-9.64a.4.4,0,1,0,0,.8Z"/><path class="cls-14" d="M168.34,70a.4.4,0,1,0,.7-.39c-.26-.47-.7-1.21-1.28-2.08a.4.4,0,1,0-.67.45C167.66,68.77,168.08,69.5,168.34,70Z"/><path class="cls-14" d="M179.62,70.69h4.47a.4.4,0,1,0,0-.8h-4.47a.4.4,0,1,0,0,.8Z"/><path class="cls-14" d="M154.58,61.14a5.86,5.86,0,0,1,3.84-.42A10,10,0,0,1,163,63.14a.4.4,0,1,0,.52-.61,10.82,10.82,0,0,0-4.93-2.59,6.65,6.65,0,0,0-4.36.49.4.4,0,0,0,.37.71Z"/><path class="cls-14" d="M171.59,70.69h.8a.4.4,0,0,0,0-.8h-.8a.4.4,0,0,0,0,.8Z"/><path class="cls-14" d="M150.14,64.05a.4.4,0,1,0,.71-.38c-.12-.22-.25-.46-.41-.72a.4.4,0,0,0-.69.41C149.89,63.61,150,63.84,150.14,64.05Z"/><path class="cls-14" d="M129.57,66h.06a.4.4,0,0,0,.34-.45c0-.25-.06-.51-.09-.78a.4.4,0,0,0-.8.06c0,.25,0,.5.08.74v.09A.4.4,0,0,0,129.57,66Z"/><path class="cls-14" d="M131.06,70a.4.4,0,0,0,0-.38s-.17-.39-.38-1a.4.4,0,0,0-.76.26l.18.52h-.7a.4.4,0,0,0,0,.8h1.29A.4.4,0,0,0,131.06,70Z"/><path class="cls-4" d="M113.07,73.77h71.52a.8.8,0,0,0,0-1.61H168c-1.48-2.72-5.16-8.58-9.77-9.46-6.11-1.17-7.33,4.93-7.33,4.93s-4.06-10.56-14.34-9.16c-4.91.67-6.74,3.26-7.23,6a.4.4,0,0,1,.59.32c0,.26.05.52.09.78a.4.4,0,0,1-.34.45h-.06a.4.4,0,0,1-.4-.35V65.6a13.81,13.81,0,0,0,.37,3.8h.59l-.18-.52a.4.4,0,0,1,.76-.26c.21.62.38,1,.38,1a.4.4,0,0,1-.37.57h-1a15.78,15.78,0,0,0,.68,2H113.07a.8.8,0,0,0,0,1.61Z"/><path class="cls-15" d="M125.34,107.33l-.52-1.68a.34.34,0,0,1,.13-.38,6.64,6.64,0,0,0,2-2.25,6.61,6.61,0,0,0-3.59-9.34L124.65,98a1.38,1.38,0,0,1-.92,1.72l-3.63,1.1a1.38,1.38,0,0,1-1.72-.92l-1.32-4.36a6.38,6.38,0,0,0-.52.81,6.62,6.62,0,0,0,5.6,9.73.34.34,0,0,1,.32.24l.92,3a8.53,8.53,0,0,1,2-2.06"/><path class="cls-16" d="M123.34,115.12l.87,3.13.25.82a7,7,0,0,0,3.34,12.55.34.34,0,0,0,.37-.25.32.32,0,0,0,.29-.43l-1.53-5a.7.7,0,0,1,.46-.87l3.07-.95a1,1,0,0,1,.47.59l1.57,5.09a.35.35,0,0,0,.44.23,3.73,3.73,0,0,0,.45-.12c.22-.19.33-.16.5-.32a.33.33,0,0,0,.12-.08,7.29,7.29,0,0,0-2-11.29,7.35,7.35,0,0,0-2.95-.83l-.37-1.21"/><path class="cls-15" d="M128.54,117.73l-.41-1.33a8.81,8.81,0,0,1-2.93-1l.93,3.06a.34.34,0,0,1-.13.38,6.66,6.66,0,0,0-2,2.25,6.61,6.61,0,0,0,3.59,9.34L126.29,126a1.38,1.38,0,0,1,.92-1.72l3.63-1.1a1.38,1.38,0,0,1,1.72.92l1.32,4.36a6.34,6.34,0,0,0,.52-.81,6.62,6.62,0,0,0-5.55-9.73A.34.34,0,0,1,128.54,117.73Z"/><polygon class="cls-17" points="121.29 100.15 121.29 100.15 121.5 100.08 121.29 100.15"/><path class="cls-7" d="M124,111.83a2.68,2.68,0,0,0,1.29,2,6.19,6.19,0,0,0,4,1.23.67.67,0,0,1,.37,0,5.24,5.24,0,0,0,.65-6,2.82,2.82,0,0,0-1.47-1.34,2.31,2.31,0,0,0-1.73.15C126.5,108.14,124,109.77,124,111.83Z"/><path class="cls-14" d="M87.89,54.69h.37a.4.4,0,1,0,0-.81h-.37a.4.4,0,1,0,0,.81Z"/><path class="cls-14" d="M58.68,48.68a.4.4,0,0,0,.31-.14,3.84,3.84,0,0,1,1.83-1.14.4.4,0,0,0-.24-.77A4.64,4.64,0,0,0,58.37,48a.4.4,0,0,0,.31.66Z"/><path class="cls-14" d="M63.83,47.16a6.18,6.18,0,0,1,.74.15h.11a.4.4,0,0,0,.11-.79,7.08,7.08,0,0,0-.84-.17.41.41,0,0,0-.46.34A.4.4,0,0,0,63.83,47.16Z"/><path class="cls-14" d="M82.25,54.69h2.42a.4.4,0,1,0,0-.81H82.25a.4.4,0,1,0,0,.81Z"/><path class="cls-14" d="M58.87,54.41a.4.4,0,0,0-.4-.4H48.8a.4.4,0,0,0,0,.81h9.67A.4.4,0,0,0,58.87,54.41Z"/><path class="cls-14" d="M70.29,52s0-.08,0-.17a3,3,0,0,1,2.82-2.34,4.05,4.05,0,0,1,.76.08,6.47,6.47,0,0,1,3.18,1.87.4.4,0,0,0,.56-.58,7.25,7.25,0,0,0-3.59-2.08,4.86,4.86,0,0,0-.91-.09,3.74,3.74,0,0,0-3.54,2.73.4.4,0,0,0-.16.5l.06.14a.42.42,0,0,0,.38.26l.14,0A.4.4,0,0,0,70.29,52Z"/><path class="cls-4" d="M48.68,57.52H88.59a.81.81,0,0,0,0-1.61H79.14c-.82-1.51-2.88-4.8-5.46-5.29a3.15,3.15,0,0,0-3.36,1.18c0,.09,0,.15,0,.17a.4.4,0,0,1-.26.3,4.37,4.37,0,0,0-.43,1.11s-2.27-5.9-8-5.11c-4.22.57-4.37,3.68-4,5.76h.85a.4.4,0,1,1,0,.81h-.66a8.73,8.73,0,0,0,.38,1.09H48.68a.81.81,0,0,0,0,1.61Z"/><path class="cls-9" d="M85,104h.23a4.65,4.65,0,0,0,1.37-.76,11.44,11.44,0,0,0,3.23-3.49,2.66,2.66,0,0,0,.25-2A1.35,1.35,0,0,0,89,96.78c-1.75-.39-7,.84-9.27,3.59a1.39,1.39,0,0,0-.17,1.53c.56,1.1,3.49,1.91,4.94,2.08Z"/><path class="cls-16" d="M125.92,106.88l-.37-1.21a7.35,7.35,0,0,0,2-2.34,7.29,7.29,0,0,0-4.62-10.51.33.33,0,0,0-.15,0c-.22,0-.3,0-.59,0a3.73,3.73,0,0,0-.44.15.35.35,0,0,0-.23.44l1.54,5.1a1,1,0,0,1-.06.75l-3.07.93a.7.7,0,0,1-.87-.47l-1.51-5a.32.32,0,0,0-.48-.19.34.34,0,0,0-.44,0,7,7,0,0,0,4.24,12.27l.25.82,1,3.08"/><path class="cls-10" d="M126,106.8a.65.65,0,0,0-.09.08"/><path class="cls-15" d="M125.34,107.33l-.52-1.68a.34.34,0,0,1,.13-.38,6.64,6.64,0,0,0,2-2.25,6.61,6.61,0,0,0-3.59-9.34L124.65,98a1.38,1.38,0,0,1-.92,1.72l-3.63,1.1a1.38,1.38,0,0,1-1.72-.92l-1.32-4.36a6.38,6.38,0,0,0-.52.81,6.62,6.62,0,0,0,5.6,9.73.34.34,0,0,1,.32.24l.92,3a8.53,8.53,0,0,1,2-2.06"/></g></svg>